<?xml version="1.0" standalone="no"?>
<!DOCTYPE svg PUBLIC "-//W3C//DTD SVG 20010904//EN"
 "http://www.w3.org/TR/2001/REC-SVG-20010904/DTD/svg10.dtd">
<svg version="1.0" xmlns="http://www.w3.org/2000/svg"
 width="1200.000000pt" height="800.000000pt" viewBox="0 0 1200.000000 800.000000"
 preserveAspectRatio="xMidYMid meet">

<g transform="translate(0.000000,800.000000) scale(0.100000,-0.100000)"
fill="#000000" stroke="none">
<path d="M5665 6853 c-16 -8 -39 -24 -51 -35 -17 -15 -26 -17 -48 -8 -90 34
-203 -19 -230 -107 -5 -17 -15 -23 -35 -23 -37 0 -89 -18 -125 -43 -37 -26
-80 -118 -74 -158 4 -27 2 -30 -16 -24 -49 17 -99 17 -141 1 -97 -38 -159
-161 -126 -249 9 -23 7 -26 -25 -31 -44 -9 -100 -57 -116 -102 -11 -32 -15
-34 -55 -34 -104 0 -203 -103 -203 -209 0 -37 43 -125 71 -144 l22 -16 -37
-42 c-48 -53 -66 -96 -66 -159 0 -140 142 -260 274 -230 44 10 49 8 82 -17 28
-21 47 -27 89 -28 35 0 60 -6 72 -17 28 -25 88 -48 125 -48 44 1 110 31 136
64 18 23 30 28 79 31 l58 4 100 -115 c185 -211 204 -277 190 -638 l-7 -186
-169 0 c-215 0 -209 -4 -209 145 l0 105 54 0 c86 0 86 1 86 210 0 224 12 210
-181 210 -165 0 -169 -2 -169 -103 l0 -67 -110 0 -110 0 0 58 c0 36 -6 66 -16
80 -15 22 -18 22 -268 22 -232 0 -254 -1 -269 -18 -24 -26 -25 -342 -2 -366
25 -24 66 -27 298 -24 216 3 219 3 238 27 13 16 19 39 19 77 l0 55 108 -3 107
-3 3 -60 c4 -77 20 -95 84 -95 l50 0 -4 -111 c-3 -96 -6 -113 -22 -125 -16
-11 -75 -14 -310 -14 -268 0 -293 -1 -331 -20 -52 -25 -79 -70 -85 -145 l-5
-60 -73 -2 c-114 -2 -112 1 -112 -220 0 -240 -16 -223 213 -223 140 0 177 3
195 16 21 15 22 20 22 208 0 146 -3 196 -13 204 -7 6 -42 12 -77 14 l-65 3 -3
42 c-3 35 2 48 22 68 l25 25 311 0 310 0 0 -70 0 -70 -60 0 c-90 0 -92 -6 -88
-230 3 -166 5 -183 22 -196 15 -10 55 -14 161 -14 198 0 185 -16 185 220 0
184 -1 189 -22 204 -13 9 -43 16 -71 16 l-48 0 3 68 3 67 183 3 183 2 -6 -77
c-14 -171 -50 -408 -76 -497 -15 -49 -32 -80 -62 -113 -54 -59 -100 -84 -248
-139 -144 -54 -246 -103 -274 -134 l-20 -22 40 7 c22 3 74 13 115 20 41 8 98
17 125 20 43 6 82 12 250 40 27 5 20 -4 -65 -90 -52 -52 -90 -95 -84 -95 27 0
197 65 312 119 70 34 137 61 147 61 11 0 80 -29 155 -64 124 -59 268 -116 294
-116 6 0 -29 39 -77 88 -48 48 -87 90 -87 93 0 4 48 -2 108 -12 308 -51 434
-70 439 -65 11 11 -117 83 -203 115 -295 109 -372 181 -410 379 -15 79 -50
351 -56 432 l-3 45 178 3 177 2 0 -70 0 -70 -45 0 c-32 0 -51 -6 -65 -20 -19
-19 -20 -33 -20 -203 0 -165 2 -186 18 -200 27 -24 303 -25 326 -1 13 13 16
46 16 204 0 184 -1 189 -22 204 -12 9 -41 16 -64 16 l-42 0 -4 66 c-1 36 -1
68 1 70 2 2 135 4 296 4 279 0 292 -1 313 -20 17 -16 22 -32 22 -70 l0 -50
-64 0 c-95 0 -96 -2 -96 -226 0 -163 2 -183 18 -197 27 -25 362 -25 386 -1 13
13 16 46 16 204 0 225 2 220 -100 220 l-68 0 -4 63 c-5 76 -32 121 -92 148
-37 17 -69 19 -317 19 -250 0 -277 2 -291 18 -12 12 -17 45 -20 125 l-3 107
45 0 c66 0 74 9 80 87 l5 68 100 0 100 0 3 -63 c5 -95 0 -94 292 -90 226 3
243 4 256 22 21 30 20 333 -2 364 -15 22 -18 22 -268 22 -183 0 -255 -3 -264
-12 -7 -7 -12 -40 -12 -80 l0 -68 -105 0 -105 0 0 68 c0 100 -4 102 -173 102
-187 0 -177 12 -177 -213 0 -201 2 -207 83 -207 l47 0 0 -108 c0 -148 8 -142
-197 -142 l-161 0 -7 116 c-4 64 -5 189 -3 278 8 238 28 287 198 481 130 147
125 144 146 103 65 -129 228 -163 336 -69 37 32 48 37 83 34 51 -5 99 24 122
72 9 19 20 32 25 29 20 -12 99 -4 141 14 135 60 157 264 38 350 -34 25 -36 29
-24 52 17 33 16 124 -1 158 -28 54 -103 102 -160 102 -19 0 -23 4 -19 19 8 31
-16 100 -49 137 -42 47 -77 64 -138 64 -50 0 -50 0 -50 33 -1 72 -74 151 -152
163 -33 6 -38 10 -38 33 0 41 -41 111 -83 145 -34 27 -47 31 -110 33 -69 1
-72 3 -79 29 -15 57 -93 114 -157 114 -20 0 -34 8 -45 25 -38 58 -155 83 -221
48z m315 -1289 c0 -2 -11 -24 -25 -50 -38 -72 -30 -173 18 -213 10 -7 17 -19
17 -25 0 -20 -97 -115 -124 -122 -58 -14 -104 47 -129 171 -17 83 -12 135 12
135 68 0 153 61 166 119 l6 31 30 -22 c16 -12 29 -23 29 -24z m-433 -269 l61
0 11 -75 c6 -41 14 -90 17 -107 3 -18 1 -33 -3 -32 -4 0 -46 45 -93 98 -85 98
-111 143 -74 125 11 -5 47 -9 81 -9z"/>
<path d="M3310 2961 c-111 -35 -199 -120 -240 -229 -18 -46 -21 -74 -18 -147
3 -78 8 -100 35 -156 39 -79 102 -140 181 -177 52 -24 68 -27 172 -27 110 1
118 2 182 34 110 55 110 55 112 225 l1 146 -157 0 -158 0 0 -55 0 -55 95 0 95
0 0 -65 0 -65 -42 -21 c-52 -27 -151 -36 -204 -19 -107 34 -164 109 -172 225
-5 84 8 139 45 187 82 105 224 124 346 46 l49 -31 41 41 c40 40 41 42 22 61
-76 85 -257 123 -385 82z"/>
<path d="M6350 2605 l0 -375 65 0 65 0 0 375 0 375 -65 0 -65 0 0 -375z"/>
<path d="M4026 2774 c-65 -20 -146 -101 -169 -168 -56 -163 31 -340 185 -376
100 -24 238 9 294 71 15 16 13 20 -19 55 l-34 38 -32 -27 c-57 -47 -179 -51
-228 -6 -24 23 -53 76 -53 99 0 6 71 10 206 10 l206 0 -7 63 c-22 192 -171
295 -349 241z m175 -130 c28 -27 51 -80 42 -96 -2 -5 -65 -8 -140 -8 l-135 0
6 32 c7 34 48 84 81 99 11 5 42 7 68 5 36 -2 55 -10 78 -32z"/>
<path d="M4719 2779 c-20 -6 -50 -23 -68 -40 -18 -16 -34 -29 -37 -29 -2 0 -4
16 -4 35 l0 36 -62 -3 -63 -3 -3 -272 -2 -273 65 0 65 0 0 165 c0 225 18 264
125 273 52 4 56 3 90 -31 l35 -35 0 -186 0 -186 66 0 65 0 -3 219 -3 219 -31
39 c-17 21 -45 46 -62 56 -38 22 -124 30 -173 16z"/>
<path d="M5286 2774 c-65 -20 -146 -101 -169 -168 -47 -139 12 -294 135 -357
93 -47 238 -31 313 35 l40 34 -34 35 -34 36 -40 -27 c-35 -23 -51 -27 -113
-27 -63 0 -76 3 -99 25 -30 28 -55 71 -55 95 0 13 26 15 201 15 l202 0 -6 69
c-7 82 -24 121 -80 179 -66 67 -158 87 -261 56z m145 -109 c34 -18 69 -69 69
-102 0 -23 -2 -23 -135 -23 -115 0 -135 2 -135 15 0 36 52 104 90 118 29 11
81 7 111 -8z"/>
<path d="M5892 2779 c-48 -8 -82 -22 -120 -47 -11 -8 -10 -17 8 -51 12 -24 26
-40 33 -37 55 23 126 38 165 33 47 -5 94 -42 106 -83 7 -21 4 -22 -111 -26
-187 -6 -253 -50 -253 -168 0 -68 24 -115 73 -148 36 -24 50 -27 123 -27 77 0
85 2 130 33 l47 34 -6 -31 -6 -31 64 0 65 0 0 188 c0 105 -5 204 -11 227 -29
103 -159 160 -307 134z m198 -325 c0 -41 -30 -93 -63 -111 -41 -21 -118 -21
-151 0 -34 23 -43 60 -22 93 24 35 49 43 149 43 l87 1 0 -26z"/>
<path d="M6782 2772 c-70 -25 -118 -66 -154 -130 -77 -136 -29 -308 110 -390
42 -24 57 -27 137 -27 72 1 98 5 130 22 137 73 194 241 130 378 -61 129 -219
195 -353 147z m178 -124 c52 -36 72 -82 68 -155 -6 -100 -61 -157 -151 -157
-66 0 -107 26 -137 90 -38 78 -13 184 53 224 46 28 124 27 167 -2z"/>
<path d="M7430 2781 c-108 -33 -190 -144 -190 -259 0 -97 63 -202 143 -241 78
-38 200 -25 256 28 l31 29 0 -41 c0 -95 -63 -151 -169 -150 -58 1 -122 22
-153 50 -10 9 -20 14 -21 12 -12 -15 -47 -82 -47 -88 0 -5 17 -20 39 -34 153
-101 378 -57 451 88 25 49 25 54 28 328 l3 277 -65 0 -66 0 0 -37 0 -37 -29
28 c-47 45 -145 67 -211 47z m176 -130 c43 -26 67 -82 62 -141 -6 -56 -29 -91
-81 -121 -131 -74 -273 91 -189 219 40 61 144 82 208 43z"/>
<path d="M7883 2768 c3 -7 55 -131 117 -275 l111 -263 -16 -34 c-19 -39 -58
-59 -106 -54 -34 3 -34 3 -37 -44 -3 -45 -2 -46 34 -58 46 -15 109 -7 143 18
52 38 62 60 256 560 30 78 55 147 55 153 0 6 -24 9 -61 7 l-61 -3 -71 -192
c-39 -106 -74 -189 -77 -185 -4 4 -35 79 -70 167 -91 232 -78 215 -156 215
-49 0 -65 -3 -61 -12z"/>
<path d="M6182 1673 l3 -368 60 0 60 0 5 38 5 39 25 -27 c38 -41 73 -55 135
-55 69 0 110 17 165 67 118 106 122 308 8 420 -92 90 -238 98 -313 17 l-25
-27 0 132 0 131 -65 0 -65 0 2 -367z m345 47 c53 -32 79 -100 67 -179 -5 -35
-15 -54 -45 -83 -114 -109 -274 -1 -238 162 17 76 67 120 139 120 27 0 58 -8
77 -20z"/>
<path d="M4792 1668 l3 -363 63 -3 62 -3 0 161 0 160 175 0 174 0 3 -157 3
-158 60 0 60 0 3 363 2 362 -65 0 -65 0 0 -145 0 -145 -175 0 -175 0 0 145 0
145 -65 0 -66 0 3 -362z"/>
<path d="M5550 1650 c0 -209 6 -247 48 -293 67 -74 214 -76 286 -4 l25 25 3
-36 3 -37 60 0 60 0 3 273 2 272 -65 0 -65 0 0 -174 c0 -164 -1 -175 -23 -207
-14 -21 -38 -39 -63 -48 -37 -13 -44 -12 -80 5 -65 32 -74 62 -74 257 l0 167
-60 0 -60 0 0 -200z"/>
</g>
</svg>
