<?xml version="1.0" encoding="UTF-8"?>
<svg xmlns="http://www.w3.org/2000/svg" viewBox="0 0 48 48">
  <path fill="#000000" d="M 22.265625 1.078125 C 19.40625 1.621094 16.914062 3.261719 15.382812 5.625 C 14.71875 6.65625 14.324219 7.546875 13.988281 8.804688 C 13.78125 9.601562 13.753906 9.882812 13.753906 11.296875 C 13.753906 12.722656 13.78125 12.992188 13.996094 13.808594 C 14.277344 14.851562 14.90625 16.257812 15.476562 17.089844 C 15.695312 17.398438 15.929688 17.792969 15.992188 17.960938 C 16.152344 18.335938 16.164062 19.011719 16.023438 19.378906 C 15.964844 19.519531 15.039062 21.179688 13.949219 23.0625 L 11.972656 26.484375 L 10.320312 26.492188 C 8.832031 26.492188 8.585938 26.523438 7.734375 26.757812 C 4.894531 27.535156 2.578125 29.351562 1.238281 31.875 C -1.734375 37.425781 0.917969 44.324219 6.84375 46.445312 C 11.765625 48.214844 17.128906 46.039062 19.566406 41.289062 C 20.476562 39.535156 20.382812 39.5625 24.515625 39.5625 C 27.515625 39.5625 27.757812 39.570312 27.816406 39.730469 C 29.054688 43.386719 31.734375 45.890625 35.410156 46.800781 C 36.074219 46.96875 36.507812 47.007812 37.640625 47.007812 C 40.070312 47.007812 41.15625 46.632812 41.15625 45.796875 C 41.15625 45.523438 41.082031 45.375 40.835938 45.132812 C 40.480469 44.773438 40.40625 44.765625 39.609375 44.953125 C 38.773438 45.160156 37.460938 45.226562 36.617188 45.101562 C 35.597656 44.953125 34.304688 44.511719 33.421875 43.988281 C 32.390625 43.378906 30.9375 41.925781 30.382812 40.941406 C 28.734375 38.015625 28.921875 34.59375 30.882812 31.742188 C 31.105469 31.398438 31.386719 30.882812 31.5 30.589844 C 31.753906 29.90625 31.761719 28.820312 31.527344 28.117188 C 31.433594 27.835938 30.496094 26.117188 29.445312 24.300781 C 28.398438 22.480469 27.554688 20.980469 27.570312 20.960938 C 27.589844 20.953125 27.84375 20.839844 28.125 20.726562 C 28.40625 20.605469 28.773438 20.429688 28.929688 20.335938 L 29.222656 20.15625 L 31.085938 23.398438 C 32.109375 25.179688 33.085938 26.804688 33.253906 27 L 33.5625 27.367188 L 33.234375 27.609375 C 32.558594 28.125 32.617188 29.007812 33.335938 29.304688 C 33.730469 29.476562 33.917969 29.417969 34.539062 29.007812 C 35.296875 28.472656 35.839844 28.359375 37.546875 28.359375 C 38.839844 28.359375 39.148438 28.386719 39.796875 28.574219 C 42.226562 29.277344 44.277344 31.039062 45.328125 33.320312 C 46.246094 35.304688 46.351562 37.359375 45.648438 39.507812 C 45.414062 40.21875 45.382812 40.398438 45.476562 40.660156 C 45.609375 41.054688 45.890625 41.25 46.339844 41.25 C 46.875 41.25 47.175781 40.902344 47.484375 39.929688 C 48.441406 36.882812 48.019531 33.742188 46.257812 31.011719 C 45.75 30.214844 44.25 28.695312 43.480469 28.191406 C 41.523438 26.898438 39.789062 26.429688 37.152344 26.445312 C 35.664062 26.457031 35.625 26.457031 35.203125 26.210938 C 34.6875 25.902344 34.734375 25.976562 32.539062 22.171875 L 30.757812 19.085938 L 31.433594 18.375 C 34.226562 15.449219 35.0625 11.082031 33.523438 7.367188 C 32.230469 4.246094 29.746094 2.101562 26.445312 1.246094 C 25.285156 0.945312 23.371094 0.871094 22.265625 1.078125 Z M 26.0625 3.09375 C 27.101562 3.355469 28.386719 3.984375 29.203125 4.640625 C 32.457031 7.238281 33.347656 11.710938 31.351562 15.367188 C 30.167969 17.523438 28.105469 19.039062 25.648438 19.539062 C 25.117188 19.648438 24.46875 19.6875 23.304688 19.679688 C 21.589844 19.667969 21.308594 19.714844 20.484375 20.195312 C 19.742188 20.632812 19.292969 21.261719 17.398438 24.570312 L 15.535156 27.824219 L 14.710938 27.429688 C 14.117188 27.160156 13.894531 27.007812 13.929688 26.90625 C 13.960938 26.832031 14.820312 25.304688 15.851562 23.511719 C 16.894531 21.722656 17.785156 20.109375 17.839844 19.921875 C 17.925781 19.640625 17.972656 19.59375 18.132812 19.640625 C 18.242188 19.679688 18.523438 19.726562 18.769531 19.753906 C 19.171875 19.800781 19.238281 19.78125 19.5 19.519531 C 20.023438 18.984375 19.820312 18.308594 19.003906 17.914062 C 18 17.429688 16.789062 15.9375 16.171875 14.417969 C 15.039062 11.632812 15.523438 8.371094 17.417969 5.992188 C 18.636719 4.453125 20.523438 3.328125 22.472656 2.953125 C 23.457031 2.765625 25.023438 2.832031 26.0625 3.09375 Z M 27.589844 24.84375 C 29.945312 28.929688 29.820312 28.6875 29.820312 29.296875 C 29.820312 29.832031 29.710938 30.113281 29.15625 30.9375 C 28.707031 31.601562 28.246094 32.511719 27.976562 33.28125 L 27.769531 33.890625 L 24.601562 33.917969 C 21.066406 33.945312 20.8125 33.910156 20.277344 33.347656 C 20.117188 33.1875 19.808594 32.691406 19.59375 32.25 C 19.039062 31.144531 18.554688 30.449219 17.757812 29.625 L 17.070312 28.914062 L 18.957031 25.640625 C 19.988281 23.832031 20.925781 22.257812 21.039062 22.144531 C 21.535156 21.589844 21.898438 21.515625 24.054688 21.515625 L 25.679688 21.515625 Z M 11.980469 28.460938 C 13.632812 28.800781 15.289062 29.71875 16.386719 30.882812 C 17.109375 31.660156 17.398438 32.082031 17.992188 33.253906 C 18.722656 34.6875 19.574219 35.429688 20.820312 35.710938 C 21.054688 35.765625 22.574219 35.8125 24.308594 35.8125 L 27.375 35.8125 L 27.375 37.574219 L 24.402344 37.632812 C 22.761719 37.660156 21.207031 37.726562 20.945312 37.761719 L 20.457031 37.835938 L 20.410156 37.414062 C 20.316406 36.554688 19.414062 36.167969 18.835938 36.742188 C 18.582031 37.003906 18.5625 37.058594 18.5625 37.808594 C 18.5625 38.746094 18.347656 39.554688 17.804688 40.59375 C 16.726562 42.683594 14.914062 44.164062 12.601562 44.867188 C 11.851562 45.101562 11.625 45.132812 10.3125 45.132812 C 9 45.132812 8.773438 45.101562 8.035156 44.878906 C 5.023438 43.960938 2.851562 41.679688 2.089844 38.652344 C 1.847656 37.6875 1.875 35.625 2.148438 34.640625 C 3.160156 30.871094 6.414062 28.351562 10.292969 28.320312 C 10.835938 28.3125 11.570312 28.378906 11.980469 28.460938 Z" />
  <path fill="#000000" d="M 22.640625 4.835938 C 21.5625 5.070312 20.351562 5.71875 19.546875 6.476562 C 18.046875 7.902344 17.34375 9.648438 17.464844 11.664062 C 17.625 14.503906 19.621094 16.921875 22.367188 17.625 C 23.25 17.851562 24.628906 17.867188 25.480469 17.671875 C 27.816406 17.117188 29.699219 15.289062 30.347656 12.9375 C 30.609375 11.980469 30.5625 10.292969 30.261719 9.355469 C 29.886719 8.230469 29.398438 7.445312 28.554688 6.609375 C 27.722656 5.785156 26.945312 5.316406 25.828125 4.96875 C 24.945312 4.707031 23.523438 4.640625 22.640625 4.835938 Z M 25.445312 6.84375 C 27.09375 7.359375 28.339844 8.832031 28.601562 10.613281 C 28.808594 12.046875 28.257812 13.648438 27.179688 14.671875 C 25.527344 16.246094 23.15625 16.332031 21.234375 14.886719 C 18.9375 13.144531 18.683594 9.992188 20.679688 7.988281 C 21.957031 6.710938 23.671875 6.300781 25.445312 6.84375 Z" />
  <path fill="#000000" d="M 8.71875 30.375 C 6.816406 30.882812 5.277344 32.128906 4.433594 33.851562 C 3.523438 35.691406 3.542969 37.726562 4.472656 39.65625 C 4.828125 40.40625 5.023438 40.679688 5.710938 41.351562 C 6.382812 42.027344 6.664062 42.234375 7.40625 42.589844 C 8.832031 43.285156 10.144531 43.460938 11.597656 43.164062 C 12.535156 42.976562 13.105469 42.742188 13.867188 42.242188 C 17.195312 40.058594 17.859375 35.605469 15.328125 32.492188 C 14.605469 31.613281 13.519531 30.890625 12.28125 30.46875 C 11.382812 30.167969 9.675781 30.121094 8.71875 30.375 Z M 11.484375 32.203125 C 12.695312 32.523438 13.929688 33.496094 14.476562 34.574219 C 15.242188 36.085938 15.132812 37.960938 14.203125 39.328125 C 12.910156 41.222656 10.351562 41.914062 8.296875 40.929688 C 7.125 40.367188 6.382812 39.535156 5.933594 38.242188 C 5.617188 37.351562 5.597656 36.160156 5.886719 35.277344 C 6.617188 32.980469 9.148438 31.601562 11.484375 32.203125 Z" />
  <path fill="#000000" d="M 36.113281 30.375 C 34.164062 30.890625 32.679688 32.082031 31.86 33.85 L 31.86 39.65 C 32.2 40.4 32.4 40.67 33.1 41.35 C 33.78 42.02 34.06 42.23 34.8 42.58 C 36.23 43.28 37.54 43.46 38.99 43.16 C 39.93 42.97 40.5 42.74 41.26 42.24 C 44.59 40.05 45.25 35.6 42.72 32.49 C 42 31.61 40.91 30.89 39.67 30.46 C 38.77 30.16 37.07 30.12 36.11 30.37 Z" />
</svg>